<svg width="1920" height="96" viewBox="0 0 1920 96" fill="none" xmlns="http://www.w3.org/2000/svg">
<g clip-path="url(#clip0_4003_5)">
<path d="M-16 48V-930L33.5 -976L79.5 -930L125.5 -976L171.5 -930L217.5 -976L263.5 -930L309.5 -976L355.5 -930L401.5 -976L447.5 -930L493.5 -976L539.5 -930L585.5 -976L631.5 -930L677.5 -976L723.5 -930L769.5 -976L815.5 -930L861.5 -976L907.5 -930L953.5 -976L999.5 -930L1045.5 -976L1091.5 -930L1137.5 -976L1183.5 -930L1229.5 -976L1275.5 -930L1321.5 -976L1367.5 -930L1413.5 -976L1459.5 -930L1505.5 -976L1551.5 -930L1597.5 -976L1643.5 -930L1689.5 -976L1735.5 -930L1781.5 -976L1827.5 -930L1873.5 -976L1919.5 -930V-21L1953 96L1905 48L1857 96L1809 48L1761 96L1713 48L1665 96L1617 48L1569 96L1521 48L1473 96L1425 48L1377 96L1329 48L1281 96L1233 48L1185 96L1137 48L1088 96L1040 48L992 96L944 48L896 96L848 48L800 96L752 48L704 96L656 48L608 96L560 48L512 96L464 48L416 96L368 48L320 96L272 48L224 96L176 48L128 96L80 48L32 96L-16 48Z" fill="#FFFBD2"/>
</g>
<defs>
<clipPath id="clip0_4003_5">
<rect width="1969" height="96" fill="white" transform="translate(-16)"/>
</clipPath>
</defs>
</svg>
