<svg width="1920" height="96" viewBox="0 0 1920 96" fill="none" xmlns="http://www.w3.org/2000/svg">
<g clip-path="url(#clip0_4003_5)">
<path d="M-16 1024V46L33.5 0L79.5 46L125.5 0L171.5 46L217.5 0L263.5 46L309.5 0L355.5 46L401.5 0L447.5 46L493.5 0L539.5 46L585.5 0L631.5 46L677.5 0L723.5 46L769.5 0L815.5 46L861.5 0L907.5 46L953.5 0L999.5 46L1045.5 0L1091.5 46L1137.5 0L1183.5 46L1229.5 0L1275.5 46L1321.5 0L1367.5 46L1413.5 0L1459.5 46L1505.5 0L1551.5 46L1597.5 0L1643.5 46L1689.5 0L1735.5 46L1781.5 0L1827.5 46L1873.5 0L1919.5 46V955L1953 1072L1905 1024L1857 1072L1809 1024L1761 1072L1713 1024L1665 1072L1617 1024L1569 1072L1521 1024L1473 1072L1425 1024L1377 1072L1329 1024L1281 1072L1233 1024L1185 1072L1137 1024L1088 1072L1040 1024L992 1072L944 1024L896 1072L848 1024L800 1072L752 1024L704 1072L656 1024L608 1072L560 1024L512 1072L464 1024L416 1072L368 1024L320 1072L272 1024L224 1072L176 1024L128 1072L80 1024L32 1072L-16 1024Z" fill="#FFFBD2"/>
</g>
<defs>
<clipPath id="clip0_4003_5">
<rect width="1969" height="96" fill="white" transform="translate(-16)"/>
</clipPath>
</defs>
</svg>
